<svg style="position: absolute; width: 0; height: 0; overflow: hidden;" version="1.1" xmlns="http://www.w3.org/2000/svg" viewBox="0 0 32 32">
      <path d="M31.68 16h-2.24c-0.176 0-0.32 0.144-0.32 0.32v12.8h-26.239v-26.239h12.8c0.176 0 0.32-0.144 0.32-0.32v-2.24c0-0.176-0.144-0.32-0.32-0.32h-14.4c-0.708 0-1.28 0.572-1.28 1.28v29.439c0 0.708 0.572 1.28 1.28 1.28h29.439c0.708 0 1.28-0.572 1.28-1.28v-14.4c0-0.176-0.144-0.32-0.32-0.32z"></path>
      <path d="M9.756 16.916l-0.076 4.756c-0.004 0.356 0.284 0.648 0.64 0.648h0.016l4.72-0.116c0.080-0.004 0.16-0.036 0.216-0.092l16.635-16.599c0.124-0.124 0.124-0.328 0-0.452l-4.972-4.968c-0.064-0.064-0.144-0.092-0.228-0.092s-0.164 0.032-0.228 0.092l-16.631 16.599c-0.056 0.058-0.091 0.137-0.092 0.224v0zM12.296 17.86l14.412-14.38 1.808 1.804-14.42 14.388-1.828 0.044 0.028-1.856z"></path>
</svg>
