<svg xmlns="http://www.w3.org/2000/svg" viewBox="0 0 32 32" width="0px" height="0px">
  <path d="M 22.577 7.247 L 21.178 9.803 C 21.002 9.803 29.225 10.998 29.225 11.174 L 29.12 29.12 L 2.881 29.12 L 2.881 2.881 L 14.771 2.776 C 14.947 2.776 21.253 10.055 21.253 9.879 L 22.618 7.289 C 22.618 7.113 15.857 0.001 15.681 0.001 L 1.281 0.001 C 0.573 0.001 0.001 0.573 0.001 1.281 L 0.001 30.72 C 0.001 31.428 0.573 32 1.281 32 L 30.72 32 C 31.428 32 32 31.428 32 30.72 L 31.965 9.142 C 31.965 8.966 22.753 7.247 22.577 7.247 Z"/>
</svg>
