<svg xmlns="http://www.w3.org/2000/svg" viewBox="0 0 32 32" width="32" height="32">
  <path stroke="currentColor" stroke-linejoin="round" stroke-width="2" d="M 1.147 2.53 C 1.147 1.782 1.757 1.174 2.509 1.174 L 18.284 1.174 C 18.644 1.174 18.99 1.316 19.245 1.571 L 22.532 4.846 C 22.788 5.101 22.931 5.445 22.931 5.805 L 22.931 21.522 C 22.931 22.272 22.321 22.879 21.569 22.879 L 2.509 22.879 C 1.757 22.879 1.147 22.272 1.147 21.522 L 1.147 2.53 Z" style="" transform="matrix(1.0000000000000002, 0, 0, 1.0000000000000002, 4.440892098500626e-16, 2.220446049250313e-16)"/>
  <path stroke="currentColor" stroke-linejoin="round" stroke-width="2" d="M8 4h8v4H8V4Zm7 10a3 3 0 1 1-6 0 3 3 0 0 1 6 0Z" transform="matrix(1.0000000000000002, 0, 0, 1.0000000000000002, 4.440892098500626e-16, 2.220446049250313e-16)"/>
</svg>
